<svg width="400" height="55" viewBox="0 0 400 55" fill="none" xmlns="http://www.w3.org/2000/svg">
<g clip-path="url(#clip0_1_708)">
<path d="M48.1695 0.803952C47.8609 0.62592 47.4931 0.57519 47.1466 0.662861C46.8 0.750533 46.5029 0.969467 46.3203 1.27175L36.6489 17.3632C36.5993 17.4466 36.5593 17.5352 36.5295 17.6273C35.4474 18.0213 34.4374 18.5849 33.5387 19.296C30.6083 14.4065 25.2391 11.3277 19.3732 11.3277C10.3221 11.3277 2.95967 18.5484 2.93444 27.4318H0.800903L0.991673 28.9241C2.10183 37.5971 7.54798 45.1726 15.3787 49.1616V54.2827H35.5843C38.1455 54.2827 40.2292 52.2344 40.2292 49.7183V49.1623C48.0624 45.1714 53.5061 37.5959 54.6187 28.9241L54.8095 27.4306H50.9566C50.9387 22.8964 47.9781 19.0416 43.86 17.5862L55.9264 6.18186C56.4631 5.67478 56.4803 4.83467 55.9621 4.30763C55.8394 4.18216 55.6926 4.08167 55.5303 4.0119C55.368 3.94214 55.1932 3.90447 55.0161 3.90104C54.8389 3.89762 54.6628 3.92851 54.4978 3.99195C54.3328 4.05539 54.1821 4.15013 54.0544 4.27077L40.6132 16.9764C40.4926 16.9715 40.3726 16.9582 40.2501 16.9582C40.1726 16.9582 40.0981 16.9691 40.0218 16.9703L48.6458 2.62016C48.736 2.47019 48.7952 2.30425 48.8201 2.13181C48.8449 1.95937 48.8349 1.78381 48.7907 1.61516C48.7465 1.4465 48.6689 1.28806 48.5623 1.14887C48.4557 1.00968 48.3222 0.892478 48.1695 0.803952ZM19.3726 13.9804C24.54 13.9804 29.2501 16.8374 31.5929 21.3135C30.7388 22.4673 30.1332 23.78 29.8132 25.1714C28.7394 20.4764 24.4698 16.957 19.3726 16.957C13.4852 16.957 8.69567 21.652 8.67044 27.4312H5.63537C5.65998 20.011 11.8114 13.9804 19.3726 13.9804ZM19.3726 22.5936C16.6464 22.5936 14.428 24.7604 14.4027 27.4312H11.372C11.3972 23.1146 14.9744 19.6103 19.3726 19.6103C23.772 19.6103 27.3529 23.1146 27.3757 27.4312H24.3412C24.3172 24.7604 22.0987 22.5936 19.3726 22.5936ZM21.6384 27.4318H17.1067C17.1188 26.8488 17.3628 26.2936 17.7866 25.8851C18.2103 25.4766 18.7801 25.2473 19.3738 25.2463C19.9673 25.2475 20.5367 25.4769 20.96 25.8854C21.3833 26.2939 21.6269 26.8491 21.6384 27.4318ZM51.6975 30.0845C50.1966 37.793 44.8741 44.3646 37.4975 47.5123H33.1744V50.1656H37.4686C37.3675 50.5819 37.1267 50.9526 36.7851 51.2183C36.4434 51.4839 36.0207 51.6289 35.5849 51.63H18.0803V50.1656H23.1443V47.5123H18.1129C10.7363 44.3664 5.41321 37.793 3.91106 30.0845H51.6975ZM37.9849 27.4318C37.9968 26.849 38.2405 26.294 38.6639 25.8855C39.0873 25.4771 39.6567 25.2476 40.2501 25.2463C40.8441 25.2468 41.4143 25.4759 41.8383 25.8845C42.2624 26.293 42.5065 26.8485 42.5184 27.4318H37.9849ZM40.2501 19.6109C44.6514 19.6109 48.2335 23.1152 48.2569 27.4318H45.2206C45.196 24.761 42.9769 22.5942 40.2501 22.5942C37.524 22.5942 35.3074 24.761 35.2827 27.4318H32.2495C32.2741 23.1152 35.8514 19.6109 40.2501 19.6109Z" fill="#AD343E"/>
<path d="M39.6742 42.9139C39.8902 42.9139 40.1086 42.8637 40.3098 42.7568C41.9592 41.8897 43.4066 40.6947 44.5599 39.248C45.7131 37.8012 46.547 36.1345 47.0083 34.3539C47.0525 34.1848 47.0623 34.0088 47.0371 33.8361C47.0119 33.6633 46.9522 33.4971 46.8615 33.347C46.7708 33.1969 46.6507 33.0659 46.5083 32.9615C46.3659 32.8571 46.204 32.7813 46.0317 32.7385C45.8594 32.6957 45.6802 32.6867 45.5043 32.7121C45.3285 32.7374 45.1595 32.7967 45.007 32.8863C44.8546 32.976 44.7216 33.0943 44.6158 33.2346C44.51 33.3748 44.4334 33.5342 44.3905 33.7035C44.0222 35.1266 43.3561 36.4588 42.4346 37.6151C41.5131 38.7714 40.3565 39.7265 39.0385 40.4196C38.7727 40.5585 38.5618 40.7808 38.4396 41.051C38.3173 41.3213 38.2906 41.6239 38.3637 41.9108C38.4368 42.1976 38.6055 42.4522 38.843 42.634C39.0805 42.8158 39.3731 42.9143 39.6742 42.9139Z" fill="#474747"/>
<path d="M36.4059 45.0064C37.2902 45.0064 38.0071 44.3023 38.0071 43.4337C38.0071 42.5652 37.2902 41.8611 36.4059 41.8611C35.5215 41.8611 34.8046 42.5652 34.8046 43.4337C34.8046 44.3023 35.5215 45.0064 36.4059 45.0064Z" fill="#474747"/>
</g>
<path d="M92.392 44.2133L81.8533 19.04C81.8533 19.04 81.8249 19.0116 81.768 18.9547C81.7395 18.8693 81.6969 18.784 81.64 18.6987C81.5831 18.5849 81.5404 18.4996 81.512 18.4427C81.4835 18.3573 81.4693 18.3147 81.4693 18.3147C81.6969 17.2622 81.768 16.4942 81.6826 16.0107C81.6258 15.4987 81.3413 15.1573 80.8293 14.9867C80.3458 14.7876 79.5493 14.6738 78.44 14.6453L78.6533 13.792C79.1084 13.8204 79.6631 13.8489 80.3173 13.8773C81 13.9058 81.7111 13.92 82.4506 13.92C83.7875 13.92 84.9395 13.8773 85.9066 13.792L94.6106 35.6373C94.6106 35.6373 94.5822 35.8507 94.5253 36.2773C94.4684 36.6756 94.3831 37.2018 94.2693 37.856C94.184 38.4818 94.0844 39.1644 93.9706 39.904C93.8569 40.6436 93.7431 41.3404 93.6293 41.9947C93.544 42.6489 93.4729 43.1893 93.416 43.616C93.3591 44.0142 93.3306 44.2133 93.3306 44.2133H92.392ZM105.448 12.64C104.68 12.6684 103.997 12.896 103.4 13.3227C102.831 13.7209 102.333 14.2471 101.907 14.9013C100.598 16.8356 99.2613 20.2347 97.896 25.0987C96.5306 29.9627 95.0089 36.3342 93.3306 44.2133L92.7333 43.0187C93.16 41.1129 93.6151 39.0649 94.0986 36.8747C94.5822 34.656 95.0942 32.4373 95.6346 30.2187C96.2035 28 96.7724 25.8809 97.3413 23.8613C97.9386 21.8418 98.5502 20.0356 99.176 18.4427C99.8302 16.8213 100.484 15.5271 101.139 14.56C101.679 13.792 102.319 13.152 103.059 12.64C103.798 12.0996 104.694 11.8293 105.747 11.8293C106.941 11.8293 107.823 12.1422 108.392 12.768C108.961 13.3653 109.245 14.0907 109.245 14.944C109.245 15.9396 108.932 16.8071 108.307 17.5467C107.681 18.2578 106.856 18.6133 105.832 18.6133C105.007 18.6133 104.381 18.3858 103.955 17.9307C103.556 17.4756 103.357 16.9493 103.357 16.352C103.357 15.5271 103.599 14.8018 104.083 14.176C104.595 13.5502 105.22 13.0951 105.96 12.8107C105.875 12.7538 105.789 12.7111 105.704 12.6827C105.647 12.6542 105.562 12.64 105.448 12.64ZM70.8453 46.3467C71.6418 46.3182 72.3244 46.0907 72.8933 45.664C73.4906 45.2658 74.0169 44.7253 74.472 44.0427C75.2969 42.7342 76.1218 40.6862 76.9466 37.8987C77.8 35.1111 78.6533 31.7404 79.5066 27.7867C80.3884 23.8329 81.2702 19.4951 82.152 14.7733L82.8773 15.6693C82.4222 18.0018 81.9386 20.3769 81.4266 22.7947C80.9431 25.184 80.4453 27.5307 79.9333 29.8347C79.4213 32.1102 78.8951 34.2293 78.3546 36.192C77.8142 38.1547 77.2738 39.8613 76.7333 41.312C76.1929 42.7342 75.6666 43.7867 75.1546 44.4693C74.6426 45.152 74.0311 45.7636 73.32 46.304C72.6373 46.8729 71.7271 47.1573 70.5893 47.1573C69.3662 47.1573 68.4702 46.8444 67.9013 46.2187C67.3324 45.6213 67.048 44.8818 67.048 44C67.048 43.0329 67.3609 42.1938 67.9866 41.4827C68.6124 40.7431 69.4373 40.3733 70.4613 40.3733C71.3146 40.3733 71.9404 40.6009 72.3386 41.056C72.7369 41.5111 72.936 42.0373 72.936 42.6347C72.936 43.4596 72.68 44.1849 72.168 44.8107C71.6844 45.4364 71.0871 45.8916 70.376 46.176C70.4329 46.2329 70.504 46.2756 70.5893 46.304C70.6746 46.3324 70.76 46.3467 70.8453 46.3467ZM137.46 7.94666C138.371 7.94666 139.067 8.21689 139.551 8.75733C140.035 9.29778 140.276 9.93778 140.276 10.6773C140.276 11.4738 140.035 12.1849 139.551 12.8107C139.096 13.4364 138.456 13.9484 137.631 14.3467C136.835 14.7733 135.853 15.1004 134.687 15.328C133.521 15.5556 132.17 15.6693 130.634 15.6693C129.553 15.6693 128.415 15.6124 127.22 15.4987C126.026 15.3849 124.817 15.2569 123.594 15.1147C122.371 14.9724 121.162 14.8444 119.967 14.7307C118.772 14.6169 117.649 14.56 116.596 14.56C115.658 14.56 114.747 14.6169 113.866 14.7307C112.984 14.816 112.287 15.0009 111.775 15.2853C112.344 15.5129 112.813 15.9111 113.183 16.48C113.581 17.0489 113.78 17.7031 113.78 18.4427C113.78 19.2676 113.51 20.0071 112.97 20.6613C112.458 21.2871 111.747 21.6 110.836 21.6C109.983 21.6 109.329 21.3156 108.874 20.7467C108.419 20.1778 108.191 19.4951 108.191 18.6987C108.191 18.0444 108.362 17.3618 108.703 16.6507C109.073 15.9111 109.77 15.2853 110.794 14.7733C111.448 14.4604 112.145 14.2329 112.884 14.0907C113.624 13.9484 114.321 13.8631 114.975 13.8347C115.629 13.8062 116.141 13.792 116.511 13.792C118.246 13.792 119.924 13.8773 121.546 14.048C123.167 14.2187 124.76 14.3893 126.324 14.56C127.889 14.7307 129.439 14.816 130.975 14.816C132.17 14.816 133.165 14.7591 133.962 14.6453C134.787 14.5031 135.512 14.2898 136.138 14.0053L136.052 14.3467C135.683 14.0053 135.327 13.5644 134.986 13.024C134.673 12.4551 134.516 11.8009 134.516 11.0613C134.516 10.208 134.772 9.48266 135.284 8.88533C135.825 8.25955 136.55 7.94666 137.46 7.94666ZM121.93 14.6027C121.93 14.6027 122.115 14.6169 122.484 14.6453C122.883 14.6738 123.366 14.7164 123.935 14.7733C124.504 14.8302 125.073 14.8871 125.642 14.944C126.211 15.0009 126.68 15.0436 127.05 15.072C127.419 15.1004 127.604 15.1147 127.604 15.1147L121.29 39.0507C121.005 40.1031 120.891 40.9138 120.948 41.4827C121.034 42.0516 121.347 42.464 121.887 42.72C122.456 42.9476 123.323 43.0898 124.49 43.1467L124.319 44C123.466 43.9431 122.371 43.9147 121.034 43.9147C119.725 43.8862 118.36 43.872 116.938 43.872C115.544 43.872 114.207 43.8862 112.927 43.9147C111.647 43.9147 110.623 43.9431 109.855 44L110.026 43.1467C111.22 43.0898 112.145 42.9476 112.799 42.72C113.482 42.464 114.008 42.0516 114.378 41.4827C114.776 40.8853 115.131 40.0747 115.444 39.0507L121.93 14.6027ZM159.881 20.1067C160.25 18.7129 160.421 17.6462 160.393 16.9067C160.364 16.1671 160.094 15.6267 159.582 15.2853C159.098 14.944 158.302 14.7307 157.193 14.6453L157.449 13.792C157.961 13.8204 158.643 13.8489 159.497 13.8773C160.378 13.9058 161.189 13.92 161.929 13.92C162.64 13.92 163.337 13.9058 164.019 13.8773C164.702 13.8489 165.285 13.8204 165.769 13.792L165.513 14.6453C164.574 14.7307 163.82 14.944 163.251 15.2853C162.711 15.5982 162.256 16.1102 161.886 16.8213C161.545 17.504 161.218 18.4853 160.905 19.7653L157.833 31.584C156.809 35.5093 155.415 38.5244 153.651 40.6293C152.627 41.824 151.347 42.7911 149.811 43.5307C148.304 44.2418 146.668 44.5973 144.905 44.5973C143.056 44.5973 141.477 44.3413 140.169 43.8293C138.889 43.2889 137.893 42.5493 137.182 41.6107C136.357 40.4729 135.945 39.136 135.945 37.6C135.945 36.0356 136.258 34.0729 136.883 31.712L140.425 18.3147C140.709 17.2622 140.823 16.4942 140.766 16.0107C140.709 15.4987 140.453 15.1573 139.998 14.9867C139.571 14.7876 138.874 14.6738 137.907 14.6453L138.163 13.792C138.846 13.8204 139.77 13.8489 140.937 13.8773C142.131 13.9058 143.383 13.92 144.691 13.92C145.858 13.92 146.981 13.9058 148.062 13.8773C149.143 13.8489 150.082 13.8204 150.878 13.792L150.622 14.6453C149.655 14.6738 148.901 14.7876 148.361 14.9867C147.82 15.1573 147.394 15.4987 147.081 16.0107C146.796 16.4942 146.512 17.2622 146.227 18.3147L142.473 32.4373C142.046 34.0871 141.747 35.5804 141.577 36.9173C141.434 38.2258 141.463 39.3493 141.662 40.288C141.89 41.1982 142.33 41.8951 142.985 42.3787C143.639 42.8622 144.549 43.104 145.715 43.104C147.849 43.104 149.626 42.6347 151.049 41.696C152.471 40.7289 153.637 39.4062 154.547 37.728C155.458 36.0498 156.183 34.1582 156.723 32.0533L159.881 20.1067ZM163.45 37.6C162.512 38.9369 161.985 40.0036 161.872 40.8C161.786 41.5964 162.042 42.1796 162.64 42.5493C163.265 42.8907 164.147 43.0898 165.285 43.1467L165.114 44C164.033 43.9431 163.052 43.9147 162.17 43.9147C161.317 43.8862 160.506 43.872 159.738 43.872C159.084 43.872 158.529 43.8862 158.074 43.9147C157.619 43.9147 157.164 43.9431 156.709 44L156.922 43.1467C157.377 43.0329 157.833 42.8338 158.288 42.5493C158.743 42.2364 159.241 41.7956 159.781 41.2267C160.293 40.6293 160.89 39.8471 161.573 38.88L179.578 13.5787C179.834 13.6071 180.105 13.6213 180.389 13.6213C180.702 13.6213 180.986 13.6071 181.242 13.5787L182.949 40.416C183.034 41.44 183.29 42.1511 183.717 42.5493C184.172 42.9191 184.613 43.1182 185.04 43.1467L184.869 44C184.186 43.9431 183.305 43.9147 182.224 43.9147C181.171 43.8862 180.161 43.872 179.194 43.872C178 43.872 176.862 43.8862 175.781 43.9147C174.7 43.9147 173.847 43.9431 173.221 44L173.392 43.1467C174.757 43.0898 175.724 42.848 176.293 42.4213C176.862 41.9662 177.118 41.0133 177.061 39.5627L175.952 19.424L177.061 18.4L163.45 37.6ZM167.248 31.712H179.706L179.365 32.5653H166.48L167.248 31.712ZM206.871 39.4773C206.615 40.5013 206.501 41.2693 206.529 41.7813C206.558 42.2933 206.8 42.6347 207.255 42.8053C207.71 42.976 208.421 43.0898 209.388 43.1467L209.217 44C208.478 43.9431 207.539 43.9147 206.401 43.9147C205.264 43.8862 204.112 43.872 202.945 43.872C201.637 43.872 200.414 43.8862 199.276 43.9147C198.167 43.9147 197.242 43.9431 196.503 44L196.716 43.1467C197.655 43.0898 198.38 42.976 198.892 42.8053C199.432 42.6347 199.859 42.2933 200.172 41.7813C200.485 41.2693 200.769 40.5013 201.025 39.4773L206.657 18.3147C206.942 17.2622 207.056 16.4942 206.999 16.0107C206.942 15.4987 206.686 15.1573 206.231 14.9867C205.804 14.7876 205.107 14.6738 204.14 14.6453L204.353 13.792C205.036 13.8204 205.946 13.8489 207.084 13.8773C208.25 13.9058 209.488 13.92 210.796 13.92C211.962 13.92 213.1 13.9058 214.209 13.8773C215.347 13.8489 216.314 13.8204 217.111 13.792L216.897 14.6453C215.93 14.6738 215.176 14.7876 214.636 14.9867C214.096 15.1573 213.669 15.4987 213.356 16.0107C213.072 16.4942 212.787 17.2622 212.503 18.3147L206.871 39.4773ZM221.975 41.7387C222.572 41.7387 223.07 41.5111 223.468 41.056C223.895 40.5724 224.264 39.8613 224.577 38.9227L225.303 36.7467H226.156L225.047 40.032C224.506 41.5964 223.752 42.7484 222.785 43.488C221.847 44.2276 220.752 44.5973 219.5 44.5973C217.85 44.5973 216.656 44.128 215.916 43.1893C215.176 42.2507 214.892 40.9707 215.063 39.3493L215.745 33.76C215.859 32.5938 215.873 31.6836 215.788 31.0293C215.703 30.3467 215.532 29.8204 215.276 29.4507C215.02 29.0524 214.65 28.7111 214.167 28.4267L214.252 28C215.589 28.1138 216.712 28.2987 217.623 28.5547C218.561 28.8107 219.315 29.2089 219.884 29.7493C220.453 30.2613 220.837 30.9724 221.036 31.8827C221.264 32.7644 221.32 33.9307 221.207 35.3813L220.823 39.9893C220.794 40.5013 220.851 40.928 220.993 41.2693C221.164 41.5822 221.491 41.7387 221.975 41.7387ZM214.764 28.64C213.228 29.0667 212.176 29.2231 211.607 29.1093C211.066 28.9956 210.824 28.7111 210.881 28.256C210.91 27.8293 211.194 27.5591 211.735 27.4453C212.275 27.3031 213.285 27.4453 214.764 27.872V28.64ZM224.492 14.8587C223.98 15.3991 223.539 16.1102 223.169 16.992C222.828 17.8453 222.501 18.784 222.188 19.808C221.875 20.8036 221.52 21.8133 221.121 22.8373C220.752 23.8329 220.268 24.7573 219.671 25.6107C219.102 26.4356 218.376 27.104 217.495 27.616C216.613 28.0996 215.518 28.3271 214.209 28.2987L214.295 27.872C215.745 27.7298 216.897 27.2889 217.751 26.5493C218.632 25.8098 219.329 24.8853 219.841 23.776C220.353 22.6667 220.78 21.5147 221.121 20.32C221.491 19.0969 221.875 17.9591 222.273 16.9067C222.672 15.8542 223.198 15.0009 223.852 14.3467C224.336 13.8916 224.819 13.5929 225.303 13.4507C225.815 13.28 226.298 13.1947 226.753 13.1947C227.92 13.1947 228.801 13.5218 229.399 14.176C230.024 14.8018 230.323 15.6124 230.295 16.608C230.266 17.1484 230.124 17.7031 229.868 18.272C229.612 18.8409 229.228 19.3244 228.716 19.7227C228.232 20.1209 227.621 20.32 226.881 20.32C226.142 20.32 225.544 20.0924 225.089 19.6373C224.634 19.1538 224.407 18.5422 224.407 17.8027C224.435 17.12 224.677 16.4373 225.132 15.7547C225.616 15.0436 226.241 14.4889 227.009 14.0907C226.924 14.0907 226.839 14.0764 226.753 14.048C226.696 14.0196 226.597 14.0053 226.455 14.0053C226 14.0338 225.63 14.1191 225.345 14.2613C225.061 14.4036 224.776 14.6027 224.492 14.8587ZM237.096 39.4773C236.84 40.5013 236.726 41.2693 236.754 41.7813C236.783 42.2933 237.025 42.6347 237.48 42.8053C237.935 42.976 238.646 43.0898 239.613 43.1467L239.442 44C238.703 43.9431 237.75 43.9147 236.584 43.9147C235.417 43.8862 234.223 43.872 233 43.872C231.72 43.872 230.525 43.8862 229.416 43.9147C228.335 43.9147 227.439 43.9431 226.728 44L226.941 43.1467C227.88 43.0898 228.605 42.976 229.117 42.8053C229.657 42.6347 230.084 42.2933 230.397 41.7813C230.71 41.2693 230.994 40.5013 231.25 39.4773L236.882 18.3147C237.167 17.2622 237.281 16.4942 237.224 16.0107C237.167 15.4987 236.911 15.1573 236.456 14.9867C236.029 14.7876 235.332 14.6738 234.365 14.6453L234.578 13.792C235.261 13.8204 236.157 13.8489 237.266 13.8773C238.376 13.9058 239.57 13.92 240.85 13.92C242.073 13.92 243.254 13.9058 244.392 13.8773C245.529 13.8489 246.511 13.8204 247.336 13.792L247.122 14.6453C246.155 14.6738 245.401 14.7876 244.861 14.9867C244.321 15.1573 243.894 15.4987 243.581 16.0107C243.297 16.4942 243.012 17.2622 242.728 18.3147L237.096 39.4773ZM277.06 7.94666C277.971 7.94666 278.667 8.21689 279.151 8.75733C279.635 9.29778 279.876 9.93778 279.876 10.6773C279.876 11.4738 279.635 12.1849 279.151 12.8107C278.696 13.4364 278.056 13.9484 277.231 14.3467C276.435 14.7733 275.453 15.1004 274.287 15.328C273.121 15.5556 271.77 15.6693 270.234 15.6693C269.153 15.6693 268.015 15.6124 266.82 15.4987C265.626 15.3849 264.417 15.2569 263.194 15.1147C261.971 14.9724 260.762 14.8444 259.567 14.7307C258.372 14.6169 257.249 14.56 256.196 14.56C255.258 14.56 254.347 14.6169 253.466 14.7307C252.584 14.816 251.887 15.0009 251.375 15.2853C251.944 15.5129 252.413 15.9111 252.783 16.48C253.181 17.0489 253.38 17.7031 253.38 18.4427C253.38 19.2676 253.11 20.0071 252.57 20.6613C252.058 21.2871 251.347 21.6 250.436 21.6C249.583 21.6 248.929 21.3156 248.474 20.7467C248.019 20.1778 247.791 19.4951 247.791 18.6987C247.791 18.0444 247.962 17.3618 248.303 16.6507C248.673 15.9111 249.37 15.2853 250.394 14.7733C251.048 14.4604 251.745 14.2329 252.484 14.0907C253.224 13.9484 253.921 13.8631 254.575 13.8347C255.229 13.8062 255.741 13.792 256.111 13.792C257.846 13.792 259.524 13.8773 261.146 14.048C262.767 14.2187 264.36 14.3893 265.924 14.56C267.489 14.7307 269.039 14.816 270.575 14.816C271.77 14.816 272.765 14.7591 273.562 14.6453C274.387 14.5031 275.112 14.2898 275.738 14.0053L275.652 14.3467C275.283 14.0053 274.927 13.5644 274.586 13.024C274.273 12.4551 274.116 11.8009 274.116 11.0613C274.116 10.208 274.372 9.48266 274.884 8.88533C275.425 8.25955 276.15 7.94666 277.06 7.94666ZM261.53 14.6027C261.53 14.6027 261.715 14.6169 262.084 14.6453C262.483 14.6738 262.966 14.7164 263.535 14.7733C264.104 14.8302 264.673 14.8871 265.242 14.944C265.811 15.0009 266.28 15.0436 266.65 15.072C267.019 15.1004 267.204 15.1147 267.204 15.1147L260.89 39.0507C260.605 40.1031 260.491 40.9138 260.548 41.4827C260.634 42.0516 260.947 42.464 261.487 42.72C262.056 42.9476 262.923 43.0898 264.09 43.1467L263.919 44C263.066 43.9431 261.971 43.9147 260.634 43.9147C259.325 43.8862 257.96 43.872 256.538 43.872C255.144 43.872 253.807 43.8862 252.527 43.9147C251.247 43.9147 250.223 43.9431 249.455 44L249.626 43.1467C250.82 43.0898 251.745 42.9476 252.399 42.72C253.082 42.464 253.608 42.0516 253.978 41.4827C254.376 40.8853 254.731 40.0747 255.044 39.0507L261.53 14.6027ZM303.534 13.792C303.107 14.9013 302.666 16.2524 302.211 17.8453C301.756 19.4098 301.287 21.3298 300.803 23.6053H299.865C300.121 22.1547 300.22 20.9031 300.163 19.8507C300.135 18.7698 299.922 17.8596 299.523 17.12C298.983 16.096 298.243 15.3422 297.305 14.8587C296.394 14.3751 295.385 14.1333 294.275 14.1333C292.853 14.1333 291.459 14.5316 290.094 15.328C288.757 16.1244 287.52 17.2196 286.382 18.6133C285.244 20.0071 284.234 21.6 283.353 23.392C282.499 25.184 281.831 27.0898 281.347 29.1093C280.864 31.1004 280.622 33.0916 280.622 35.0827C280.622 37.9271 281.148 40.0462 282.201 41.44C283.282 42.8053 284.732 43.488 286.553 43.488C287.634 43.488 288.8 43.232 290.051 42.72C291.303 42.208 292.384 41.4684 293.294 40.5013C294.062 39.7049 294.716 38.7947 295.257 37.7707C295.826 36.7467 296.451 35.4098 297.134 33.76H298.073C297.362 36.3484 296.807 38.4391 296.409 40.032C296.039 41.5964 295.754 42.9191 295.555 44H294.617C294.702 43.4027 294.745 42.9191 294.745 42.5493C294.745 41.9236 294.631 41.568 294.403 41.4827C294.176 41.3973 293.82 41.5111 293.337 41.824C292.597 42.336 291.815 42.8053 290.99 43.232C290.165 43.6302 289.269 43.9573 288.302 44.2133C287.363 44.4693 286.297 44.5973 285.102 44.5973C281.49 44.5973 278.759 43.7013 276.91 41.9093C275.061 40.1173 274.137 37.5573 274.137 34.2293C274.137 32.2382 274.45 30.2471 275.075 28.256C275.73 26.2649 276.64 24.3733 277.806 22.5813C279.001 20.7609 280.409 19.1538 282.03 17.76C283.68 16.3378 285.5 15.2284 287.491 14.432C289.511 13.6071 291.673 13.1947 293.977 13.1947C295.171 13.1947 296.153 13.3369 296.921 13.6213C297.689 13.8773 298.343 14.2187 298.883 14.6453C299.424 15.0436 299.893 15.4844 300.291 15.968C300.69 16.3947 301.074 16.4516 301.443 16.1387C301.813 15.7973 302.211 15.0151 302.638 13.792H303.534ZM310.796 29.2373L311.094 28.384H326.156L325.814 29.2373H310.796ZM327.35 18.3147C327.635 17.2622 327.749 16.4942 327.692 16.0107C327.663 15.4987 327.421 15.1573 326.966 14.9867C326.511 14.7876 325.8 14.6738 324.833 14.6453L325.046 13.792C325.786 13.8204 326.725 13.8489 327.862 13.8773C329 13.9058 330.152 13.92 331.318 13.92C332.627 13.92 333.85 13.9058 334.988 13.8773C336.154 13.8489 337.093 13.8204 337.804 13.792L337.59 14.6453C336.623 14.6738 335.869 14.7876 335.329 14.9867C334.789 15.1573 334.362 15.4987 334.049 16.0107C333.765 16.4942 333.48 17.2622 333.196 18.3147L327.564 39.4773C327.308 40.5013 327.194 41.2693 327.222 41.7813C327.251 42.2933 327.493 42.6347 327.948 42.8053C328.403 42.976 329.114 43.0898 330.081 43.1467L329.91 44C329.228 43.9431 328.303 43.9147 327.137 43.9147C325.999 43.8862 324.776 43.872 323.468 43.872C322.301 43.872 321.149 43.8862 320.012 43.9147C318.874 43.9147 317.921 43.9431 317.153 44L317.324 43.1467C318.291 43.0898 319.045 42.976 319.585 42.8053C320.125 42.6347 320.552 42.2933 320.865 41.7813C321.178 41.2693 321.462 40.5013 321.718 39.4773L327.35 18.3147ZM309.729 39.4773C309.473 40.5013 309.359 41.2693 309.388 41.7813C309.416 42.2933 309.658 42.6347 310.113 42.8053C310.568 42.976 311.279 43.0898 312.246 43.1467L312.076 44C311.336 43.9431 310.397 43.9147 309.26 43.9147C308.122 43.8862 306.97 43.872 305.804 43.872C304.495 43.872 303.272 43.8862 302.134 43.9147C301.025 43.9147 300.101 43.9431 299.361 44L299.574 43.1467C300.513 43.0898 301.238 42.976 301.75 42.8053C302.291 42.6347 302.717 42.2933 303.03 41.7813C303.343 41.2693 303.628 40.5013 303.884 39.4773L309.516 18.3147C309.8 17.2622 309.914 16.4942 309.857 16.0107C309.8 15.4987 309.544 15.1573 309.089 14.9867C308.662 14.7876 307.965 14.6738 306.998 14.6453L307.212 13.792C307.894 13.8204 308.805 13.8489 309.942 13.8773C311.109 13.9058 312.346 13.92 313.654 13.92C314.821 13.92 315.958 13.9058 317.068 13.8773C318.205 13.8489 319.173 13.8204 319.969 13.792L319.756 14.6453C318.789 14.6738 318.035 14.7876 317.494 14.9867C316.954 15.1573 316.527 15.4987 316.214 16.0107C315.93 16.4942 315.645 17.2622 315.361 18.3147L309.729 39.4773ZM343.634 29.2373L343.847 28.384H351.911L351.698 29.2373H343.634ZM348.071 28.384C348.896 28.384 349.607 28.2276 350.204 27.9147C350.83 27.5733 351.356 27.1324 351.783 26.592C352.238 26.0516 352.622 25.4827 352.935 24.8853C353.276 24.2596 353.561 23.6622 353.788 23.0933H354.727C354.272 24.5156 353.945 25.6249 353.746 26.4213C353.547 27.2178 353.333 28.0142 353.106 28.8107C352.992 29.3227 352.864 29.8204 352.722 30.304C352.608 30.7876 352.48 31.3564 352.338 32.0107C352.224 32.6649 352.067 33.504 351.868 34.528H350.887C350.944 33.9307 350.972 33.3191 350.972 32.6933C350.972 32.0676 350.873 31.4987 350.674 30.9867C350.503 30.4747 350.176 30.0622 349.692 29.7493C349.237 29.408 348.569 29.2373 347.687 29.2373L348.071 28.384ZM359.42 21.472C359.619 19.7938 359.619 18.4711 359.42 17.504C359.221 16.5084 358.78 15.8116 358.098 15.4133C357.415 14.9867 356.391 14.7733 355.026 14.7733H353.106C352.139 14.7733 351.385 14.8587 350.844 15.0293C350.332 15.1716 349.92 15.4987 349.607 16.0107C349.323 16.4942 349.038 17.2622 348.754 18.3147L343.079 39.4773C342.823 40.5013 342.709 41.2693 342.738 41.7813C342.766 42.2933 343.008 42.6347 343.463 42.8053C343.918 42.9476 344.629 43.0187 345.596 43.0187H347.687C349.308 43.0187 350.645 42.7769 351.698 42.2933C352.75 41.8098 353.675 41.0276 354.471 39.9467C355.267 38.8373 356.05 37.344 356.818 35.4667H357.756C357.614 35.8364 357.458 36.2916 357.287 36.832C357.145 37.3724 357.003 37.9413 356.86 38.5387C356.718 39.0791 356.533 39.8613 356.306 40.8853C356.078 41.8809 355.879 42.9191 355.708 44C354.258 43.9431 352.622 43.9147 350.802 43.9147C349.01 43.8862 347.403 43.872 345.98 43.872C345.298 43.872 344.43 43.872 343.378 43.872C342.325 43.872 341.173 43.8862 339.922 43.9147C338.699 43.9147 337.461 43.9289 336.21 43.9573C334.958 43.9573 333.778 43.9716 332.668 44L332.839 43.1467C333.806 43.0898 334.56 42.976 335.1 42.8053C335.641 42.6347 336.067 42.2933 336.38 41.7813C336.693 41.2693 336.978 40.5013 337.234 39.4773L342.908 18.3147C343.193 17.2622 343.307 16.4942 343.25 16.0107C343.221 15.4987 342.979 15.1573 342.524 14.9867C342.098 14.7876 341.401 14.6738 340.434 14.6453L340.647 13.792C341.756 13.8204 342.937 13.8489 344.188 13.8773C345.44 13.8773 346.677 13.8916 347.9 13.92C349.152 13.92 350.304 13.92 351.356 13.92C352.409 13.92 353.276 13.92 353.959 13.92C355.239 13.92 356.675 13.92 358.268 13.92C359.861 13.8916 361.312 13.8489 362.62 13.792C362.251 14.7876 361.923 15.712 361.639 16.5653C361.383 17.3902 361.17 18.144 360.999 18.8267C360.857 19.3387 360.729 19.8364 360.615 20.32C360.53 20.7751 360.459 21.1591 360.402 21.472H359.42ZM382.534 44.2133L371.995 19.04C371.995 19.04 371.967 19.0116 371.91 18.9547C371.881 18.8693 371.839 18.784 371.782 18.6987C371.725 18.5849 371.682 18.4996 371.654 18.4427C371.625 18.3573 371.611 18.3147 371.611 18.3147C371.839 17.2622 371.91 16.4942 371.824 16.0107C371.767 15.4987 371.483 15.1573 370.971 14.9867C370.487 14.7876 369.691 14.6738 368.582 14.6453L368.795 13.792C369.25 13.8204 369.805 13.8489 370.459 13.8773C371.142 13.9058 371.853 13.92 372.592 13.92C373.929 13.92 375.081 13.8773 376.048 13.792L384.752 35.6373C384.752 35.6373 384.724 35.8507 384.667 36.2773C384.61 36.6756 384.525 37.2018 384.411 37.856C384.326 38.4818 384.226 39.1644 384.112 39.904C383.999 40.6436 383.885 41.3404 383.771 41.9947C383.686 42.6489 383.615 43.1893 383.558 43.616C383.501 44.0142 383.472 44.2133 383.472 44.2133H382.534ZM395.59 12.64C394.822 12.6684 394.139 12.896 393.542 13.3227C392.973 13.7209 392.475 14.2471 392.048 14.9013C390.74 16.8356 389.403 20.2347 388.038 25.0987C386.672 29.9627 385.151 36.3342 383.472 44.2133L382.875 43.0187C383.302 41.1129 383.757 39.0649 384.24 36.8747C384.724 34.656 385.236 32.4373 385.776 30.2187C386.345 28 386.914 25.8809 387.483 23.8613C388.08 21.8418 388.692 20.0356 389.318 18.4427C389.972 16.8213 390.626 15.5271 391.28 14.56C391.821 13.792 392.461 13.152 393.2 12.64C393.94 12.0996 394.836 11.8293 395.888 11.8293C397.083 11.8293 397.965 12.1422 398.534 12.768C399.103 13.3653 399.387 14.0907 399.387 14.944C399.387 15.9396 399.074 16.8071 398.448 17.5467C397.823 18.2578 396.998 18.6133 395.974 18.6133C395.149 18.6133 394.523 18.3858 394.096 17.9307C393.698 17.4756 393.499 16.9493 393.499 16.352C393.499 15.5271 393.741 14.8018 394.224 14.176C394.736 13.5502 395.362 13.0951 396.102 12.8107C396.016 12.7538 395.931 12.7111 395.846 12.6827C395.789 12.6542 395.703 12.64 395.59 12.64ZM360.987 46.3467C361.783 46.3182 362.466 46.0907 363.035 45.664C363.632 45.2658 364.159 44.7253 364.614 44.0427C365.439 42.7342 366.263 40.6862 367.088 37.8987C367.942 35.1111 368.795 31.7404 369.648 27.7867C370.53 23.8329 371.412 19.4951 372.294 14.7733L373.019 15.6693C372.564 18.0018 372.08 20.3769 371.568 22.7947C371.085 25.184 370.587 27.5307 370.075 29.8347C369.563 32.1102 369.037 34.2293 368.496 36.192C367.956 38.1547 367.415 39.8613 366.875 41.312C366.335 42.7342 365.808 43.7867 365.296 44.4693C364.784 45.152 364.173 45.7636 363.462 46.304C362.779 46.8729 361.869 47.1573 360.731 47.1573C359.508 47.1573 358.612 46.8444 358.043 46.2187C357.474 45.6213 357.19 44.8818 357.19 44C357.19 43.0329 357.503 42.1938 358.128 41.4827C358.754 40.7431 359.579 40.3733 360.603 40.3733C361.456 40.3733 362.082 40.6009 362.48 41.056C362.879 41.5111 363.078 42.0373 363.078 42.6347C363.078 43.4596 362.822 44.1849 362.31 44.8107C361.826 45.4364 361.229 45.8916 360.518 46.176C360.575 46.2329 360.646 46.2756 360.731 46.304C360.816 46.3324 360.902 46.3467 360.987 46.3467Z" fill="#474747"/>
<defs>
<clipPath id="clip0_1_708">
<rect width="56" height="55" fill="white" transform="translate(0.5)"/>
</clipPath>
</defs>
</svg>
